<svg width="301" height="325" viewBox="0 0 301 325" fill="none" xmlns="http://www.w3.org/2000/svg">
<path d="M150.5 0.5C233.307 0.5 300.5 72.9931 300.5 162.5C300.5 252.007 233.307 324.5 150.5 324.5C67.6927 324.5 0.5 252.007 0.5 162.5C0.5 72.9931 67.6927 0.5 150.5 0.5Z" fill="#D9D9D9" stroke="#333333"/>
<path d="M219.252 171.93L208.521 135.165C206.965 129.812 203.97 125.156 199.964 121.858C195.958 118.559 191.143 116.787 186.204 116.792H114.681C109.742 116.787 104.927 118.559 100.921 121.858C96.9145 125.156 93.9203 129.812 92.3637 135.165L81.6327 171.93C78.7792 173.294 76.3423 175.59 74.6283 178.531C72.9144 181.472 72 184.926 72 188.458V215.333C72 221.945 75.1691 227.66 79.8442 230.769V242.208C79.8442 244.584 80.6707 246.863 82.1418 248.543C83.6128 250.223 85.6081 251.167 87.6885 251.167H95.5327C97.6131 251.167 99.6084 250.223 101.079 248.543C102.551 246.863 103.377 244.584 103.377 242.208V233.25H197.508V242.208C197.508 244.584 198.334 246.863 199.805 248.543C201.276 250.223 203.272 251.167 205.352 251.167H213.196C215.277 251.167 217.272 250.223 218.743 248.543C220.214 246.863 221.041 244.584 221.041 242.208V230.769C223.42 229.21 225.399 226.962 226.776 224.253C228.153 221.543 228.88 218.466 228.885 215.333V188.458C228.885 181.014 224.908 174.645 219.252 171.93ZM114.681 134.708H186.196C187.843 134.708 189.449 135.299 190.785 136.399C192.121 137.499 193.12 139.051 193.641 140.836L202.316 170.542H98.5684L107.236 140.836C108.311 137.172 111.307 134.708 114.681 134.708ZM99.4548 215.333C97.9092 215.333 96.3787 214.984 94.9509 214.308C93.523 213.632 92.2258 212.642 91.1331 211.393C88.9265 208.871 87.6874 205.452 87.6885 201.887C87.6895 198.322 88.9306 194.903 91.1387 192.383C93.3468 189.863 96.341 188.448 99.4627 188.449C102.584 188.451 105.578 189.868 107.784 192.39C109.991 194.911 111.23 198.331 111.229 201.896C111.228 205.461 109.987 208.879 107.779 211.399C105.571 213.919 102.577 215.335 99.4548 215.333ZM201.43 215.333C198.308 215.332 195.315 213.915 193.108 211.393C190.902 208.871 189.663 205.452 189.664 201.887C189.665 198.322 190.906 194.903 193.114 192.383C195.322 189.863 198.316 188.448 201.438 188.449C204.56 188.451 207.553 189.868 209.76 192.39C211.966 194.911 213.205 198.331 213.204 201.896C213.203 205.461 211.962 208.879 209.754 211.399C207.546 213.919 204.552 215.335 201.43 215.333ZM97.7056 98.875C100.428 104.205 105.432 107.833 111.221 107.833C117.01 107.833 122.015 104.205 124.737 98.875H176.156C178.87 104.205 183.875 107.833 189.664 107.833C195.453 107.833 200.457 104.205 203.179 98.875H189.664V80.9583H203.179C200.457 75.6281 195.453 72 189.664 72C183.875 72 178.87 75.6281 176.148 80.9583H124.737C122.015 75.6281 117.01 72 111.221 72C105.432 72 100.428 75.6281 97.7056 80.9583H111.221V98.875H97.7056Z" fill="black"/>
<path d="M175.349 46.25C175.349 60.7475 164.078 72.5 150.175 72.5C136.271 72.5 125 60.7475 125 46.25C125 31.7525 136.271 20 150.175 20C164.078 20 175.349 31.7525 175.349 46.25Z" fill="#D9D9D9" stroke="black" stroke-width="3"/>
<path d="M165.647 45.625C165.647 54.2544 158.787 61.25 150.324 61.25C141.861 61.25 135 54.2544 135 45.625C135 36.9956 141.861 30 150.324 30C158.787 30 165.647 36.9956 165.647 45.625Z" fill="#D9D9D9" stroke="#302D2D" stroke-width="2"/>
<path d="M91.5455 275H88.7273C88.5606 274.189 88.2689 273.477 87.8523 272.864C87.4432 272.25 86.9432 271.735 86.3523 271.318C85.7689 270.894 85.1212 270.576 84.4091 270.364C83.697 270.152 82.9545 270.045 82.1818 270.045C80.7727 270.045 79.4962 270.402 78.3523 271.114C77.2159 271.826 76.3106 272.875 75.6364 274.261C74.9697 275.648 74.6364 277.348 74.6364 279.364C74.6364 281.379 74.9697 283.08 75.6364 284.466C76.3106 285.852 77.2159 286.902 78.3523 287.614C79.4962 288.326 80.7727 288.682 82.1818 288.682C82.9545 288.682 83.697 288.576 84.4091 288.364C85.1212 288.152 85.7689 287.837 86.3523 287.42C86.9432 286.996 87.4432 286.477 87.8523 285.864C88.2689 285.242 88.5606 284.53 88.7273 283.727H91.5455C91.3333 284.917 90.947 285.981 90.3864 286.92C89.8258 287.86 89.1288 288.659 88.2955 289.318C87.4621 289.97 86.5265 290.466 85.4886 290.807C84.4583 291.148 83.3561 291.318 82.1818 291.318C80.197 291.318 78.4318 290.833 76.8864 289.864C75.3409 288.894 74.125 287.515 73.2386 285.727C72.3523 283.939 71.9091 281.818 71.9091 279.364C71.9091 276.909 72.3523 274.788 73.2386 273C74.125 271.212 75.3409 269.833 76.8864 268.864C78.4318 267.894 80.197 267.409 82.1818 267.409C83.3561 267.409 84.4583 267.58 85.4886 267.92C86.5265 268.261 87.4621 268.761 88.2955 269.42C89.1288 270.072 89.8258 270.867 90.3864 271.807C90.947 272.739 91.3333 273.803 91.5455 275ZM100.872 291.409C99.7661 291.409 98.7623 291.201 97.8608 290.784C96.9593 290.36 96.2434 289.75 95.7131 288.955C95.1828 288.152 94.9176 287.182 94.9176 286.045C94.9176 285.045 95.1146 284.235 95.5085 283.614C95.9025 282.985 96.429 282.492 97.0881 282.136C97.7472 281.78 98.4744 281.515 99.2699 281.341C100.073 281.159 100.88 281.015 101.69 280.909C102.751 280.773 103.611 280.67 104.27 280.602C104.937 280.527 105.421 280.402 105.724 280.227C106.035 280.053 106.19 279.75 106.19 279.318V279.227C106.19 278.106 105.884 277.235 105.27 276.614C104.664 275.992 103.743 275.682 102.509 275.682C101.228 275.682 100.224 275.962 99.4972 276.523C98.7699 277.083 98.2585 277.682 97.9631 278.318L95.4176 277.409C95.8722 276.348 96.4782 275.523 97.2358 274.932C98.0009 274.333 98.8343 273.917 99.7358 273.682C100.645 273.439 101.539 273.318 102.418 273.318C102.978 273.318 103.622 273.386 104.349 273.523C105.084 273.652 105.793 273.92 106.474 274.33C107.164 274.739 107.736 275.356 108.19 276.182C108.645 277.008 108.872 278.114 108.872 279.5V291H106.19V288.636H106.054C105.872 289.015 105.569 289.42 105.145 289.852C104.721 290.284 104.156 290.652 103.452 290.955C102.747 291.258 101.887 291.409 100.872 291.409ZM101.281 289C102.342 289 103.236 288.792 103.963 288.375C104.698 287.958 105.251 287.42 105.622 286.761C106.001 286.102 106.19 285.409 106.19 284.682V282.227C106.077 282.364 105.827 282.489 105.44 282.602C105.062 282.708 104.622 282.803 104.122 282.886C103.63 282.962 103.149 283.03 102.679 283.091C102.217 283.144 101.842 283.189 101.554 283.227C100.857 283.318 100.205 283.466 99.5994 283.67C99.0009 283.867 98.5161 284.167 98.1449 284.568C97.7813 284.962 97.5994 285.5 97.5994 286.182C97.5994 287.114 97.9441 287.818 98.6335 288.295C99.3305 288.765 100.213 289 101.281 289ZM113.767 291V273.545H116.358V276.182H116.54C116.858 275.318 117.434 274.617 118.267 274.08C119.1 273.542 120.04 273.273 121.085 273.273C121.282 273.273 121.528 273.277 121.824 273.284C122.119 273.292 122.343 273.303 122.494 273.318V276.045C122.403 276.023 122.195 275.989 121.869 275.943C121.551 275.89 121.214 275.864 120.858 275.864C120.009 275.864 119.252 276.042 118.585 276.398C117.926 276.746 117.403 277.231 117.017 277.852C116.638 278.466 116.449 279.167 116.449 279.955V291H113.767ZM142.219 291H135.037V267.727H142.537C144.795 267.727 146.726 268.193 148.332 269.125C149.938 270.049 151.17 271.379 152.026 273.114C152.882 274.841 153.31 276.909 153.31 279.318C153.31 281.742 152.878 283.83 152.014 285.58C151.151 287.322 149.893 288.663 148.241 289.602C146.59 290.534 144.582 291 142.219 291ZM137.855 288.5H142.037C143.961 288.5 145.556 288.129 146.821 287.386C148.086 286.644 149.029 285.587 149.651 284.216C150.272 282.845 150.582 281.212 150.582 279.318C150.582 277.439 150.276 275.822 149.662 274.466C149.048 273.102 148.132 272.057 146.912 271.33C145.692 270.595 144.173 270.227 142.355 270.227H137.855V288.5ZM164.764 291.364C163.188 291.364 161.806 290.989 160.616 290.239C159.435 289.489 158.51 288.439 157.844 287.091C157.185 285.742 156.855 284.167 156.855 282.364C156.855 280.545 157.185 278.958 157.844 277.602C158.51 276.246 159.435 275.193 160.616 274.443C161.806 273.693 163.188 273.318 164.764 273.318C166.34 273.318 167.719 273.693 168.901 274.443C170.09 275.193 171.014 276.246 171.673 277.602C172.34 278.958 172.673 280.545 172.673 282.364C172.673 284.167 172.34 285.742 171.673 287.091C171.014 288.439 170.09 289.489 168.901 290.239C167.719 290.989 166.34 291.364 164.764 291.364ZM164.764 288.955C165.961 288.955 166.946 288.648 167.719 288.034C168.491 287.42 169.063 286.614 169.435 285.614C169.806 284.614 169.991 283.53 169.991 282.364C169.991 281.197 169.806 280.11 169.435 279.102C169.063 278.095 168.491 277.28 167.719 276.659C166.946 276.038 165.961 275.727 164.764 275.727C163.567 275.727 162.582 276.038 161.81 276.659C161.037 277.28 160.465 278.095 160.094 279.102C159.723 280.11 159.537 281.197 159.537 282.364C159.537 283.53 159.723 284.614 160.094 285.614C160.465 286.614 161.037 287.42 161.81 288.034C162.582 288.648 163.567 288.955 164.764 288.955ZM183.858 291.364C182.222 291.364 180.813 290.977 179.631 290.205C178.449 289.432 177.54 288.367 176.903 287.011C176.267 285.655 175.949 284.106 175.949 282.364C175.949 280.591 176.275 279.027 176.926 277.67C177.585 276.307 178.502 275.242 179.676 274.477C180.858 273.705 182.237 273.318 183.812 273.318C185.04 273.318 186.146 273.545 187.131 274C188.116 274.455 188.922 275.091 189.551 275.909C190.18 276.727 190.57 277.682 190.722 278.773H188.04C187.835 277.977 187.381 277.273 186.676 276.659C185.979 276.038 185.04 275.727 183.858 275.727C182.813 275.727 181.896 276 181.108 276.545C180.328 277.083 179.718 277.845 179.278 278.83C178.847 279.807 178.631 280.955 178.631 282.273C178.631 283.621 178.843 284.795 179.267 285.795C179.699 286.795 180.305 287.572 181.085 288.125C181.873 288.678 182.797 288.955 183.858 288.955C184.555 288.955 185.188 288.833 185.756 288.591C186.324 288.348 186.805 288 187.199 287.545C187.593 287.091 187.873 286.545 188.04 285.909H190.722C190.57 286.939 190.195 287.867 189.597 288.693C189.006 289.511 188.222 290.163 187.244 290.648C186.275 291.125 185.146 291.364 183.858 291.364ZM202.233 273.545V275.818H193.188V273.545H202.233ZM195.824 269.364H198.506V286C198.506 286.758 198.616 287.326 198.835 287.705C199.063 288.076 199.35 288.326 199.699 288.455C200.055 288.576 200.43 288.636 200.824 288.636C201.119 288.636 201.362 288.621 201.551 288.591C201.741 288.553 201.892 288.523 202.006 288.5L202.551 290.909C202.369 290.977 202.116 291.045 201.79 291.114C201.464 291.189 201.051 291.227 200.551 291.227C199.794 291.227 199.051 291.064 198.324 290.739C197.604 290.413 197.006 289.917 196.528 289.25C196.059 288.583 195.824 287.742 195.824 286.727V269.364ZM213.17 291.364C211.595 291.364 210.212 290.989 209.023 290.239C207.841 289.489 206.917 288.439 206.25 287.091C205.591 285.742 205.261 284.167 205.261 282.364C205.261 280.545 205.591 278.958 206.25 277.602C206.917 276.246 207.841 275.193 209.023 274.443C210.212 273.693 211.595 273.318 213.17 273.318C214.746 273.318 216.125 273.693 217.307 274.443C218.496 275.193 219.42 276.246 220.08 277.602C220.746 278.958 221.08 280.545 221.08 282.364C221.08 284.167 220.746 285.742 220.08 287.091C219.42 288.439 218.496 289.489 217.307 290.239C216.125 290.989 214.746 291.364 213.17 291.364ZM213.17 288.955C214.367 288.955 215.352 288.648 216.125 288.034C216.898 287.42 217.47 286.614 217.841 285.614C218.212 284.614 218.398 283.53 218.398 282.364C218.398 281.197 218.212 280.11 217.841 279.102C217.47 278.095 216.898 277.28 216.125 276.659C215.352 276.038 214.367 275.727 213.17 275.727C211.973 275.727 210.989 276.038 210.216 276.659C209.443 277.28 208.871 278.095 208.5 279.102C208.129 280.11 207.943 281.197 207.943 282.364C207.943 283.53 208.129 284.614 208.5 285.614C208.871 286.614 209.443 287.42 210.216 288.034C210.989 288.648 211.973 288.955 213.17 288.955ZM225.173 291V273.545H227.764V276.182H227.946C228.264 275.318 228.84 274.617 229.673 274.08C230.507 273.542 231.446 273.273 232.491 273.273C232.688 273.273 232.935 273.277 233.23 273.284C233.526 273.292 233.749 273.303 233.901 273.318V276.045C233.81 276.023 233.601 275.989 233.276 275.943C232.957 275.89 232.62 275.864 232.264 275.864C231.416 275.864 230.658 276.042 229.991 276.398C229.332 276.746 228.81 277.231 228.423 277.852C228.045 278.466 227.855 279.167 227.855 279.955V291H225.173Z" fill="black"/>
<path d="M87.0681 130.159C79.1598 130.159 65.5 128.3 65.5 138C63 160 64.6966 158.78 63 184L63 228.5C65.5 265 99.0759 255 120 255C155 255 210.9 255 229.501 255C244.72 250.494 241.353 229.775 241.353 209.82C241.353 192.399 241.353 189.653 241.353 189.653V166.692V155.749C241.353 139.582 240.789 139.656 237.394 134.686C231.802 128.688 226.641 130.159 218.732 130.159" stroke="black" stroke-width="3" stroke-linecap="round" stroke-linejoin="round"/>
<path d="M215.959 121.983L215.956 141.295" stroke="black" stroke-width="6"/>
<path d="M88.5713 120.696L88.5684 140.007" stroke="black" stroke-width="6"/>
<path d="M241.901 202.216C241.901 202.216 252.484 202.869 262.581 188.135C272.678 173.402 273.224 150.981 273.239 148.419C273.254 145.857 273.239 131 268 110C262.761 89 258.502 69.0599 229.5 52.5C200.498 35.9401 176.5 43.5 176.5 43.5" stroke="black" stroke-width="3"/>
</svg>
